<svg width="53" height="53" viewBox="0 0 53 53" fill="none" xmlns="http://www.w3.org/2000/svg">
<g filter="url(#filter0_d_9_8)">
<circle cx="26.5" cy="22.5" r="22.5" fill="white"/>
<g clip-path="url(#clip0_9_8)">
<path d="M26.5 18.625C25.4723 18.625 24.4867 19.0333 23.76 19.76C23.0333 20.4867 22.625 21.4723 22.625 22.5C22.625 23.5277 23.0333 24.5133 23.76 25.2401C24.4867 25.9668 25.4723 26.375 26.5 26.375C27.5277 26.375 28.5133 25.9668 29.24 25.2401C29.9667 24.5133 30.375 23.5277 30.375 22.5C30.375 21.4723 29.9667 20.4867 29.24 19.76C28.5133 19.0333 27.5277 18.625 26.5 18.625ZM26.5 16.0417C28.2129 16.0417 29.8556 16.7221 31.0667 17.9333C32.2779 19.1445 32.9583 20.7872 32.9583 22.5C32.9583 24.2129 32.2779 25.8556 31.0667 27.0667C29.8556 28.2779 28.2129 28.9583 26.5 28.9583C24.7871 28.9583 23.1444 28.2779 21.9333 27.0667C20.7221 25.8556 20.0417 24.2129 20.0417 22.5C20.0417 20.7872 20.7221 19.1445 21.9333 17.9333C23.1444 16.7221 24.7871 16.0417 26.5 16.0417ZM34.8958 15.7188C34.8958 16.147 34.7257 16.5577 34.4229 16.8604C34.1201 17.1632 33.7095 17.3333 33.2813 17.3333C32.853 17.3333 32.4424 17.1632 32.1396 16.8604C31.8368 16.5577 31.6667 16.147 31.6667 15.7188C31.6667 15.2905 31.8368 14.8799 32.1396 14.5771C32.4424 14.2743 32.853 14.1042 33.2813 14.1042C33.7095 14.1042 34.1201 14.2743 34.4229 14.5771C34.7257 14.8799 34.8958 15.2905 34.8958 15.7188ZM26.5 12.1667C23.3044 12.1667 22.7826 12.1757 21.2959 12.2416C20.2832 12.2894 19.6038 12.425 18.9735 12.6704C18.4129 12.8874 18.0086 13.1471 17.5785 13.5785C17.1742 13.9691 16.8633 14.4459 16.6691 14.9735C16.4237 15.6064 16.2881 16.2845 16.2416 17.2959C16.1744 18.7219 16.1667 19.2205 16.1667 22.5C16.1667 25.6956 16.1757 26.2174 16.2416 27.7041C16.2894 28.7155 16.425 29.3962 16.6691 30.0253C16.8887 30.5871 17.147 30.9914 17.5759 31.4203C18.0112 31.8543 18.4155 32.1139 18.9709 32.3283C19.609 32.575 20.2884 32.7119 21.2959 32.7584C22.7219 32.8256 23.2205 32.8333 26.5 32.8333C29.6956 32.8333 30.2174 32.8243 31.7041 32.7584C32.7142 32.7106 33.3949 32.575 34.0253 32.3309C34.5845 32.1126 34.9914 31.853 35.4203 31.4241C35.8555 30.9888 36.1152 30.5846 36.3296 30.0291C36.575 29.3923 36.7119 28.7116 36.7584 27.7041C36.8256 26.2781 36.8333 25.7796 36.8333 22.5C36.8333 19.3044 36.8243 18.7826 36.7584 17.2959C36.7106 16.2858 36.575 15.6038 36.3296 14.9735C36.1349 14.4465 35.8246 13.9698 35.4215 13.5785C35.0311 13.174 34.5542 12.8631 34.0265 12.6691C33.3936 12.4237 32.7142 12.2881 31.7041 12.2416C30.2781 12.1744 29.7795 12.1667 26.5 12.1667ZM26.5 9.58334C30.0095 9.58334 30.4473 9.59626 31.8243 9.66084C33.1999 9.72543 34.1363 9.94114 34.9604 10.2615C35.8129 10.5896 36.5311 11.0339 37.2493 11.7508C37.9061 12.3965 38.4143 13.1775 38.7385 14.0396C39.0576 14.8624 39.2746 15.8001 39.3392 17.1758C39.3999 18.5527 39.4167 18.9906 39.4167 22.5C39.4167 26.0095 39.4038 26.4473 39.3392 27.8243C39.2746 29.1999 39.0576 30.1363 38.7385 30.9604C38.4152 31.823 37.9069 32.6042 37.2493 33.2493C36.6034 33.9058 35.8224 34.414 34.9604 34.7386C34.1376 35.0576 33.1999 35.2746 31.8243 35.3392C30.4473 35.3999 30.0095 35.4167 26.5 35.4167C22.9905 35.4167 22.5527 35.4038 21.1758 35.3392C19.8001 35.2746 18.8637 35.0576 18.0396 34.7386C17.1772 34.415 16.396 33.9066 15.7508 33.2493C15.0938 32.6037 14.5856 31.8226 14.2615 30.9604C13.9411 30.1376 13.7254 29.1999 13.6608 27.8243C13.6001 26.4473 13.5833 26.0095 13.5833 22.5C13.5833 18.9906 13.5963 18.5527 13.6608 17.1758C13.7254 15.7988 13.9411 14.8637 14.2615 14.0396C14.5847 13.177 15.093 12.3957 15.7508 11.7508C16.3962 11.0936 17.1773 10.5853 18.0396 10.2615C18.8637 9.94114 19.7988 9.72543 21.1758 9.66084C22.5527 9.60014 22.9905 9.58334 26.5 9.58334Z" fill="#002675"/>
</g>
</g>
<defs>
<filter id="filter0_d_9_8" x="0" y="0" width="53" height="53" filterUnits="userSpaceOnUse" color-interpolation-filters="sRGB">
<feFlood flood-opacity="0" result="BackgroundImageFix"/>
<feColorMatrix in="SourceAlpha" type="matrix" values="0 0 0 0 0 0 0 0 0 0 0 0 0 0 0 0 0 0 127 0" result="hardAlpha"/>
<feOffset dy="4"/>
<feGaussianBlur stdDeviation="2"/>
<feComposite in2="hardAlpha" operator="out"/>
<feColorMatrix type="matrix" values="0 0 0 0 0 0 0 0 0 0 0 0 0 0 0 0 0 0 0.25 0"/>
<feBlend mode="normal" in2="BackgroundImageFix" result="effect1_dropShadow_9_8"/>
<feBlend mode="normal" in="SourceGraphic" in2="effect1_dropShadow_9_8" result="shape"/>
</filter>
<clipPath id="clip0_9_8">
<rect width="31" height="31" fill="white" transform="translate(11 7)"/>
</clipPath>
</defs>
</svg>
