<svg width="53" height="53" viewBox="0 0 53 53" fill="none" xmlns="http://www.w3.org/2000/svg">
<g filter="url(#filter0_d_9_11)">
<circle cx="26.5" cy="22.5" r="22.5" fill="white"/>
<g clip-path="url(#clip0_9_11)">
<path d="M22 18V22L16 17L22 12V16H27C29.1217 16 31.1566 16.8429 32.6569 18.3431C34.1571 19.8434 35 21.8783 35 24C35 26.1217 34.1571 28.1566 32.6569 29.6569C31.1566 31.1571 29.1217 32 27 32H18V30H27C28.5913 30 30.1174 29.3679 31.2426 28.2426C32.3679 27.1174 33 25.5913 33 24C33 22.4087 32.3679 20.8826 31.2426 19.7574C30.1174 18.6321 28.5913 18 27 18H22Z" fill="#002675"/>
</g>
</g>
<defs>
<filter id="filter0_d_9_11" x="0" y="0" width="53" height="53" filterUnits="userSpaceOnUse" color-interpolation-filters="sRGB">
<feFlood flood-opacity="0" result="BackgroundImageFix"/>
<feColorMatrix in="SourceAlpha" type="matrix" values="0 0 0 0 0 0 0 0 0 0 0 0 0 0 0 0 0 0 127 0" result="hardAlpha"/>
<feOffset dy="4"/>
<feGaussianBlur stdDeviation="2"/>
<feComposite in2="hardAlpha" operator="out"/>
<feColorMatrix type="matrix" values="0 0 0 0 0 0 0 0 0 0 0 0 0 0 0 0 0 0 0.25 0"/>
<feBlend mode="normal" in2="BackgroundImageFix" result="effect1_dropShadow_9_11"/>
<feBlend mode="normal" in="SourceGraphic" in2="effect1_dropShadow_9_11" result="shape"/>
</filter>
<clipPath id="clip0_9_11">
<rect width="24" height="24" fill="white" transform="translate(14 11)"/>
</clipPath>
</defs>
</svg>
